<?xml version="1.0" encoding="UTF-8" standalone="no"?>
<!DOCTYPE svg PUBLIC "-//W3C//DTD SVG 1.1//EN"
 "http://www.w3.org/Graphics/SVG/1.1/DTD/svg11.dtd">
<!-- Generated by graphviz version 2.40.1 (20161225.0304)
 -->
<!-- Title: %3 Pages: 1 -->
<svg width="1366pt" height="476pt"
 viewBox="0.00 0.00 1365.85 476.00" xmlns="http://www.w3.org/2000/svg" xmlns:xlink="http://www.w3.org/1999/xlink">
<g id="graph0" class="graph" transform="scale(1 1) rotate(0) translate(4 472)">
<title>%3</title>
<polygon fill="#ffffff" stroke="transparent" points="-4,4 -4,-472 1361.846,-472 1361.846,4 -4,4"/>
<!-- Era 1 -->
<g id="node1" class="node">
<title>Era 1</title>
<ellipse fill="#b3e2cd" fill-opacity="0.533333" stroke="#b3e2cd" cx="27" cy="-450" rx="27" ry="18"/>
<text text-anchor="middle" x="27" y="-446.3" font-family="Times,serif" font-size="14.00" fill="#000000">Era 1</text>
</g>
<!-- Era 2 -->
<g id="node12" class="node">
<title>Era 2</title>
<ellipse fill="#fdcdac" fill-opacity="0.533333" stroke="#fdcdac" cx="27" cy="-378" rx="27" ry="18"/>
<text text-anchor="middle" x="27" y="-374.3" font-family="Times,serif" font-size="14.00" fill="#000000">Era 2</text>
</g>
<!-- Era 1&#45;&gt;Era 2 -->
<g id="edge1" class="edge">
<title>Era 1&#45;&gt;Era 2</title>
<path fill="none" stroke="#000000" d="M27,-431.8314C27,-424.131 27,-414.9743 27,-406.4166"/>
<polygon fill="#000000" stroke="#000000" points="30.5001,-406.4132 27,-396.4133 23.5001,-406.4133 30.5001,-406.4132"/>
</g>
<!-- coal -->
<g id="node2" class="node">
<title>coal</title>
<ellipse fill="#b3e2cd" fill-opacity="0.533333" stroke="#b3e2cd" cx="238" cy="-450" rx="27" ry="18"/>
<text text-anchor="middle" x="238" y="-446.3" font-family="Times,serif" font-size="14.00" fill="#000000">coal</text>
</g>
<!-- iron -->
<g id="node7" class="node">
<title>iron</title>
<ellipse fill="#b3e2cd" fill-opacity="0.533333" stroke="#b3e2cd" cx="325" cy="-378" rx="27" ry="18"/>
<text text-anchor="middle" x="325" y="-374.3" font-family="Times,serif" font-size="14.00" fill="#000000">iron</text>
</g>
<!-- coal&#45;&gt;iron -->
<g id="edge6" class="edge">
<title>coal&#45;&gt;iron</title>
<path fill="none" stroke="#000000" d="M255.1884,-435.7751C267.9384,-425.2234 285.519,-410.674 299.8477,-398.8157"/>
<polygon fill="#000000" stroke="#000000" points="302.3748,-401.2674 307.8473,-392.1953 297.9118,-395.8747 302.3748,-401.2674"/>
</g>
<!-- hardware -->
<g id="node17" class="node">
<title>hardware</title>
<ellipse fill="#fdcdac" fill-opacity="0.533333" stroke="#fdcdac" cx="206" cy="-306" rx="36.2938" ry="18"/>
<text text-anchor="middle" x="206" y="-302.3" font-family="Times,serif" font-size="14.00" fill="#000000">hardware</text>
</g>
<!-- coal&#45;&gt;hardware -->
<g id="edge8" class="edge">
<title>coal&#45;&gt;hardware</title>
<path fill="none" stroke="#000000" d="M234.0119,-432.0535C228.5505,-407.4774 218.6891,-363.1008 212.2439,-334.0974"/>
<polygon fill="#000000" stroke="#000000" points="215.6244,-333.1753 210.0384,-324.1727 208.7911,-334.6939 215.6244,-333.1753"/>
</g>
<!-- copper -->
<g id="node22" class="node">
<title>copper</title>
<ellipse fill="#cbd5e8" fill-opacity="0.533333" stroke="#cbd5e8" cx="122" cy="-306" rx="29.4969" ry="18"/>
<text text-anchor="middle" x="122" y="-302.3" font-family="Times,serif" font-size="14.00" fill="#000000">copper</text>
</g>
<!-- coal&#45;&gt;copper -->
<g id="edge7" class="edge">
<title>coal&#45;&gt;copper</title>
<path fill="none" stroke="#000000" d="M226.3613,-433.3772C213.3502,-415.034 191.4195,-384.8209 171,-360 162.4547,-349.6128 152.562,-338.5458 143.9124,-329.1527"/>
<polygon fill="#000000" stroke="#000000" points="146.3665,-326.6519 136.996,-321.7078 141.2381,-331.4163 146.3665,-326.6519"/>
</g>
<!-- steel -->
<g id="node27" class="node">
<title>steel</title>
<ellipse fill="#cbd5e8" fill-opacity="0.533333" stroke="#cbd5e8" cx="292" cy="-234" rx="27" ry="18"/>
<text text-anchor="middle" x="292" y="-230.3" font-family="Times,serif" font-size="14.00" fill="#000000">steel</text>
</g>
<!-- coal&#45;&gt;steel -->
<g id="edge9" class="edge">
<title>coal&#45;&gt;steel</title>
<path fill="none" stroke="#000000" d="M242.5111,-431.9555C251.9449,-394.2205 273.812,-306.7518 285.0529,-261.7882"/>
<polygon fill="#000000" stroke="#000000" points="288.5098,-262.3916 287.5397,-251.8413 281.7188,-260.6938 288.5098,-262.3916"/>
</g>
<!-- wood -->
<g id="node3" class="node">
<title>wood</title>
<ellipse fill="#b3e2cd" fill-opacity="0.533333" stroke="#b3e2cd" cx="690" cy="-378" rx="27" ry="18"/>
<text text-anchor="middle" x="690" y="-374.3" font-family="Times,serif" font-size="14.00" fill="#000000">wood</text>
</g>
<!-- boards -->
<g id="node5" class="node">
<title>boards</title>
<ellipse fill="#b3e2cd" fill-opacity="0.533333" stroke="#b3e2cd" cx="826" cy="-234" rx="28.6953" ry="18"/>
<text text-anchor="middle" x="826" y="-230.3" font-family="Times,serif" font-size="14.00" fill="#000000">boards</text>
</g>
<!-- wood&#45;&gt;boards -->
<g id="edge10" class="edge">
<title>wood&#45;&gt;boards</title>
<path fill="none" stroke="#000000" d="M704.5544,-362.5895C728.4575,-337.2803 776.1622,-286.7695 804.1409,-257.1449"/>
<polygon fill="#000000" stroke="#000000" points="806.8163,-259.4096 811.138,-249.7363 801.7272,-254.6032 806.8163,-259.4096"/>
</g>
<!-- paper -->
<g id="node16" class="node">
<title>paper</title>
<ellipse fill="#fdcdac" fill-opacity="0.533333" stroke="#fdcdac" cx="675" cy="-306" rx="27" ry="18"/>
<text text-anchor="middle" x="675" y="-302.3" font-family="Times,serif" font-size="14.00" fill="#000000">paper</text>
</g>
<!-- wood&#45;&gt;paper -->
<g id="edge11" class="edge">
<title>wood&#45;&gt;paper</title>
<path fill="none" stroke="#000000" d="M686.2149,-359.8314C684.568,-351.9266 682.6015,-342.4872 680.7784,-333.7365"/>
<polygon fill="#000000" stroke="#000000" points="684.198,-332.9894 678.732,-323.9134 677.3452,-334.4171 684.198,-332.9894"/>
</g>
<!-- grain -->
<g id="node4" class="node">
<title>grain</title>
<ellipse fill="#b3e2cd" fill-opacity="0.533333" stroke="#b3e2cd" cx="582" cy="-378" rx="27" ry="18"/>
<text text-anchor="middle" x="582" y="-374.3" font-family="Times,serif" font-size="14.00" fill="#000000">grain</text>
</g>
<!-- cattle -->
<g id="node9" class="node">
<title>cattle</title>
<ellipse fill="#b3e2cd" fill-opacity="0.533333" stroke="#b3e2cd" cx="523" cy="-306" rx="27" ry="18"/>
<text text-anchor="middle" x="523" y="-302.3" font-family="Times,serif" font-size="14.00" fill="#000000">cattle</text>
</g>
<!-- grain&#45;&gt;cattle -->
<g id="edge12" class="edge">
<title>grain&#45;&gt;cattle</title>
<path fill="none" stroke="#000000" d="M568.906,-362.0209C561.1911,-352.6061 551.2811,-340.5126 542.6445,-329.973"/>
<polygon fill="#000000" stroke="#000000" points="545.1029,-327.4509 536.0574,-321.9345 539.6885,-331.8877 545.1029,-327.4509"/>
</g>
<!-- flour -->
<g id="node18" class="node">
<title>flour</title>
<ellipse fill="#fdcdac" fill-opacity="0.533333" stroke="#fdcdac" cx="597" cy="-306" rx="27" ry="18"/>
<text text-anchor="middle" x="597" y="-302.3" font-family="Times,serif" font-size="14.00" fill="#000000">flour</text>
</g>
<!-- grain&#45;&gt;flour -->
<g id="edge13" class="edge">
<title>grain&#45;&gt;flour</title>
<path fill="none" stroke="#000000" d="M585.7851,-359.8314C587.432,-351.9266 589.3985,-342.4872 591.2216,-333.7365"/>
<polygon fill="#000000" stroke="#000000" points="594.6548,-334.4171 593.268,-323.9134 587.802,-332.9894 594.6548,-334.4171"/>
</g>
<!-- packaging -->
<g id="node26" class="node">
<title>packaging</title>
<ellipse fill="#cbd5e8" fill-opacity="0.533333" stroke="#cbd5e8" cx="675" cy="-162" rx="38.9931" ry="18"/>
<text text-anchor="middle" x="675" y="-158.3" font-family="Times,serif" font-size="14.00" fill="#000000">packaging</text>
</g>
<!-- boards&#45;&gt;packaging -->
<g id="edge15" class="edge">
<title>boards&#45;&gt;packaging</title>
<path fill="none" stroke="#000000" d="M803.3199,-222.9203C798.5919,-220.6236 793.6366,-218.2259 789,-216 763.2605,-203.6433 734.1707,-189.8669 711.8189,-179.3218"/>
<polygon fill="#000000" stroke="#000000" points="713.2192,-176.1126 702.6815,-175.0139 710.2341,-182.4442 713.2192,-176.1126"/>
</g>
<!-- windows -->
<g id="node29" class="node">
<title>windows</title>
<ellipse fill="#cbd5e8" fill-opacity="0.533333" stroke="#cbd5e8" cx="805" cy="-162" rx="35.194" ry="18"/>
<text text-anchor="middle" x="805" y="-158.3" font-family="Times,serif" font-size="14.00" fill="#000000">windows</text>
</g>
<!-- boards&#45;&gt;windows -->
<g id="edge14" class="edge">
<title>boards&#45;&gt;windows</title>
<path fill="none" stroke="#000000" d="M820.809,-216.2022C818.4616,-208.1541 815.6338,-198.4588 813.0228,-189.5067"/>
<polygon fill="#000000" stroke="#000000" points="816.3641,-188.4625 810.2041,-179.8425 809.6441,-190.4226 816.3641,-188.4625"/>
</g>
<!-- toys -->
<g id="node50" class="node">
<title>toys</title>
<ellipse fill="#fff2ae" fill-opacity="0.533333" stroke="#fff2ae" cx="1061" cy="-90" rx="27" ry="18"/>
<text text-anchor="middle" x="1061" y="-86.3" font-family="Times,serif" font-size="14.00" fill="#000000">toys</text>
</g>
<!-- boards&#45;&gt;toys -->
<g id="edge16" class="edge">
<title>boards&#45;&gt;toys</title>
<path fill="none" stroke="#000000" d="M852.3313,-226.786C880.9473,-218.2448 927.3496,-202.3096 963,-180 992.7338,-161.3929 1021.6729,-133.1957 1040.2992,-113.3312"/>
<polygon fill="#000000" stroke="#000000" points="1042.943,-115.627 1047.1493,-105.9029 1037.7971,-110.8816 1042.943,-115.627"/>
</g>
<!-- cotton -->
<g id="node6" class="node">
<title>cotton</title>
<ellipse fill="#b3e2cd" fill-opacity="0.533333" stroke="#b3e2cd" cx="443" cy="-306" rx="27.8951" ry="18"/>
<text text-anchor="middle" x="443" y="-302.3" font-family="Times,serif" font-size="14.00" fill="#000000">cotton</text>
</g>
<!-- thread -->
<g id="node10" class="node">
<title>thread</title>
<ellipse fill="#b3e2cd" fill-opacity="0.533333" stroke="#b3e2cd" cx="443" cy="-234" rx="27.8951" ry="18"/>
<text text-anchor="middle" x="443" y="-230.3" font-family="Times,serif" font-size="14.00" fill="#000000">thread</text>
</g>
<!-- cotton&#45;&gt;thread -->
<g id="edge17" class="edge">
<title>cotton&#45;&gt;thread</title>
<path fill="none" stroke="#000000" d="M443,-287.8314C443,-280.131 443,-270.9743 443,-262.4166"/>
<polygon fill="#000000" stroke="#000000" points="446.5001,-262.4132 443,-252.4133 439.5001,-262.4133 446.5001,-262.4132"/>
</g>
<!-- iron&#45;&gt;hardware -->
<g id="edge20" class="edge">
<title>iron&#45;&gt;hardware</title>
<path fill="none" stroke="#000000" d="M304.8133,-365.7862C286.4783,-354.6927 259.1284,-338.1449 237.8477,-325.2692"/>
<polygon fill="#000000" stroke="#000000" points="239.5106,-322.1846 229.1429,-320.0024 235.8869,-328.1737 239.5106,-322.1846"/>
</g>
<!-- iron&#45;&gt;steel -->
<g id="edge19" class="edge">
<title>iron&#45;&gt;steel</title>
<path fill="none" stroke="#000000" d="M320.8873,-360.0535C315.2552,-335.4774 305.0856,-291.1008 298.439,-262.0974"/>
<polygon fill="#000000" stroke="#000000" points="301.81,-261.1382 296.1646,-252.1727 294.9869,-262.7019 301.81,-261.1382"/>
</g>
<!-- iron ore -->
<g id="node8" class="node">
<title>iron ore</title>
<ellipse fill="#b3e2cd" fill-opacity="0.533333" stroke="#b3e2cd" cx="325" cy="-450" rx="31.6951" ry="18"/>
<text text-anchor="middle" x="325" y="-446.3" font-family="Times,serif" font-size="14.00" fill="#000000">iron ore</text>
</g>
<!-- iron ore&#45;&gt;iron -->
<g id="edge18" class="edge">
<title>iron ore&#45;&gt;iron</title>
<path fill="none" stroke="#000000" d="M325,-431.8314C325,-424.131 325,-414.9743 325,-406.4166"/>
<polygon fill="#000000" stroke="#000000" points="328.5001,-406.4132 325,-396.4133 321.5001,-406.4133 328.5001,-406.4132"/>
</g>
<!-- leather -->
<g id="node11" class="node">
<title>leather</title>
<ellipse fill="#b3e2cd" fill-opacity="0.533333" stroke="#b3e2cd" cx="368" cy="-234" rx="29.4969" ry="18"/>
<text text-anchor="middle" x="368" y="-230.3" font-family="Times,serif" font-size="14.00" fill="#000000">leather</text>
</g>
<!-- cattle&#45;&gt;leather -->
<g id="edge21" class="edge">
<title>cattle&#45;&gt;leather</title>
<path fill="none" stroke="#000000" d="M500.5395,-295.7141C476.9625,-284.898 438.8302,-267.3513 406,-252 404.2146,-251.1651 402.3831,-250.3062 400.535,-249.4374"/>
<polygon fill="#000000" stroke="#000000" points="401.8319,-246.1794 391.2944,-245.0791 398.8458,-252.5105 401.8319,-246.1794"/>
</g>
<!-- meat -->
<g id="node13" class="node">
<title>meat</title>
<ellipse fill="#fdcdac" fill-opacity="0.533333" stroke="#fdcdac" cx="523" cy="-234" rx="27" ry="18"/>
<text text-anchor="middle" x="523" y="-230.3" font-family="Times,serif" font-size="14.00" fill="#000000">meat</text>
</g>
<!-- cattle&#45;&gt;meat -->
<g id="edge22" class="edge">
<title>cattle&#45;&gt;meat</title>
<path fill="none" stroke="#000000" d="M523,-287.8314C523,-280.131 523,-270.9743 523,-262.4166"/>
<polygon fill="#000000" stroke="#000000" points="526.5001,-262.4132 523,-252.4133 519.5001,-262.4133 526.5001,-262.4132"/>
</g>
<!-- textiles -->
<g id="node14" class="node">
<title>textiles</title>
<ellipse fill="#fdcdac" fill-opacity="0.533333" stroke="#fdcdac" cx="443" cy="-162" rx="30.5947" ry="18"/>
<text text-anchor="middle" x="443" y="-158.3" font-family="Times,serif" font-size="14.00" fill="#000000">textiles</text>
</g>
<!-- thread&#45;&gt;textiles -->
<g id="edge23" class="edge">
<title>thread&#45;&gt;textiles</title>
<path fill="none" stroke="#000000" d="M443,-215.8314C443,-208.131 443,-198.9743 443,-190.4166"/>
<polygon fill="#000000" stroke="#000000" points="446.5001,-190.4132 443,-180.4133 439.5001,-190.4133 446.5001,-190.4132"/>
</g>
<!-- shoes -->
<g id="node24" class="node">
<title>shoes</title>
<ellipse fill="#cbd5e8" fill-opacity="0.533333" stroke="#cbd5e8" cx="367" cy="-162" rx="27" ry="18"/>
<text text-anchor="middle" x="367" y="-158.3" font-family="Times,serif" font-size="14.00" fill="#000000">shoes</text>
</g>
<!-- leather&#45;&gt;shoes -->
<g id="edge24" class="edge">
<title>leather&#45;&gt;shoes</title>
<path fill="none" stroke="#000000" d="M367.7477,-215.8314C367.6407,-208.131 367.5135,-198.9743 367.3947,-190.4166"/>
<polygon fill="#000000" stroke="#000000" points="370.8944,-190.3637 367.2557,-180.4133 363.8951,-190.4609 370.8944,-190.3637"/>
</g>
<!-- Era 3 -->
<g id="node21" class="node">
<title>Era 3</title>
<ellipse fill="#cbd5e8" fill-opacity="0.533333" stroke="#cbd5e8" cx="27" cy="-306" rx="27" ry="18"/>
<text text-anchor="middle" x="27" y="-302.3" font-family="Times,serif" font-size="14.00" fill="#000000">Era 3</text>
</g>
<!-- Era 2&#45;&gt;Era 3 -->
<g id="edge2" class="edge">
<title>Era 2&#45;&gt;Era 3</title>
<path fill="none" stroke="#000000" d="M27,-359.8314C27,-352.131 27,-342.9743 27,-334.4166"/>
<polygon fill="#000000" stroke="#000000" points="30.5001,-334.4132 27,-324.4133 23.5001,-334.4133 30.5001,-334.4132"/>
</g>
<!-- food -->
<g id="node33" class="node">
<title>food</title>
<ellipse fill="#f4cae4" fill-opacity="0.533333" stroke="#f4cae4" cx="591" cy="-162" rx="27" ry="18"/>
<text text-anchor="middle" x="591" y="-158.3" font-family="Times,serif" font-size="14.00" fill="#000000">food</text>
</g>
<!-- meat&#45;&gt;food -->
<g id="edge25" class="edge">
<title>meat&#45;&gt;food</title>
<path fill="none" stroke="#000000" d="M537.4211,-218.7307C546.7972,-208.803 559.1867,-195.6847 569.6899,-184.5637"/>
<polygon fill="#000000" stroke="#000000" points="572.278,-186.9207 576.5997,-177.2473 567.1889,-182.1143 572.278,-186.9207"/>
</g>
<!-- clothing -->
<g id="node37" class="node">
<title>clothing</title>
<ellipse fill="#f4cae4" fill-opacity="0.533333" stroke="#f4cae4" cx="389" cy="-90" rx="33.2948" ry="18"/>
<text text-anchor="middle" x="389" y="-86.3" font-family="Times,serif" font-size="14.00" fill="#000000">clothing</text>
</g>
<!-- textiles&#45;&gt;clothing -->
<g id="edge26" class="edge">
<title>textiles&#45;&gt;clothing</title>
<path fill="none" stroke="#000000" d="M430.4756,-145.3008C423.7575,-136.3433 415.3418,-125.1223 407.8499,-115.1331"/>
<polygon fill="#000000" stroke="#000000" points="410.6315,-113.0086 401.8315,-107.1086 405.0315,-117.2087 410.6315,-113.0086"/>
</g>
<!-- cars -->
<g id="node47" class="node">
<title>cars</title>
<ellipse fill="#e6f5c9" fill-opacity="0.533333" stroke="#e6f5c9" cx="502" cy="-90" rx="27" ry="18"/>
<text text-anchor="middle" x="502" y="-86.3" font-family="Times,serif" font-size="14.00" fill="#000000">cars</text>
</g>
<!-- textiles&#45;&gt;cars -->
<g id="edge27" class="edge">
<title>textiles&#45;&gt;cars</title>
<path fill="none" stroke="#000000" d="M456.388,-145.6621C464.007,-136.3644 473.6943,-124.5426 482.1798,-114.1873"/>
<polygon fill="#000000" stroke="#000000" points="485.0339,-116.2265 488.665,-106.2733 479.6195,-111.7897 485.0339,-116.2265"/>
</g>
<!-- pastries -->
<g id="node15" class="node">
<title>pastries</title>
<ellipse fill="#fdcdac" fill-opacity="0.533333" stroke="#fdcdac" cx="600" cy="-234" rx="31.6951" ry="18"/>
<text text-anchor="middle" x="600" y="-230.3" font-family="Times,serif" font-size="14.00" fill="#000000">pastries</text>
</g>
<!-- pastries&#45;&gt;food -->
<g id="edge28" class="edge">
<title>pastries&#45;&gt;food</title>
<path fill="none" stroke="#000000" d="M597.7289,-215.8314C596.7664,-208.131 595.6218,-198.9743 594.5521,-190.4166"/>
<polygon fill="#000000" stroke="#000000" points="598.0151,-189.9019 593.3017,-180.4133 591.0691,-190.7702 598.0151,-189.9019"/>
</g>
<!-- paper&#45;&gt;pastries -->
<g id="edge29" class="edge">
<title>paper&#45;&gt;pastries</title>
<path fill="none" stroke="#000000" d="M659.46,-291.0816C649.1122,-281.1477 635.32,-267.9072 623.6242,-256.6793"/>
<polygon fill="#000000" stroke="#000000" points="625.9362,-254.047 616.2984,-249.6465 621.0885,-259.0967 625.9362,-254.047"/>
</g>
<!-- paper&#45;&gt;packaging -->
<g id="edge30" class="edge">
<title>paper&#45;&gt;packaging</title>
<path fill="none" stroke="#000000" d="M675,-287.7623C675,-263.201 675,-219.2474 675,-190.3541"/>
<polygon fill="#000000" stroke="#000000" points="678.5001,-190.0896 675,-180.0896 671.5001,-190.0897 678.5001,-190.0896"/>
</g>
<!-- hardware&#45;&gt;shoes -->
<g id="edge32" class="edge">
<title>hardware&#45;&gt;shoes</title>
<path fill="none" stroke="#000000" d="M212.1865,-287.9947C219.7914,-268.1486 234.4035,-236.3467 256,-216 282.912,-190.6454 297.7968,-196.2683 331,-180 332.7413,-179.1468 334.5281,-178.2671 336.3301,-177.3766"/>
<polygon fill="#000000" stroke="#000000" points="337.9274,-180.4913 345.3261,-172.9077 334.8131,-174.2222 337.9274,-180.4913"/>
</g>
<!-- pipes -->
<g id="node28" class="node">
<title>pipes</title>
<ellipse fill="#cbd5e8" fill-opacity="0.533333" stroke="#cbd5e8" cx="182" cy="-234" rx="27" ry="18"/>
<text text-anchor="middle" x="182" y="-230.3" font-family="Times,serif" font-size="14.00" fill="#000000">pipes</text>
</g>
<!-- hardware&#45;&gt;pipes -->
<g id="edge31" class="edge">
<title>hardware&#45;&gt;pipes</title>
<path fill="none" stroke="#000000" d="M200.0674,-288.2022C197.3645,-280.0936 194.1043,-270.3129 191.1016,-261.3049"/>
<polygon fill="#000000" stroke="#000000" points="194.3471,-259.973 187.8643,-251.593 187.7063,-262.1867 194.3471,-259.973"/>
</g>
<!-- flour&#45;&gt;pastries -->
<g id="edge33" class="edge">
<title>flour&#45;&gt;pastries</title>
<path fill="none" stroke="#000000" d="M597.757,-287.8314C598.0779,-280.131 598.4594,-270.9743 598.816,-262.4166"/>
<polygon fill="#000000" stroke="#000000" points="602.3133,-262.5503 599.2328,-252.4133 595.3194,-262.2589 602.3133,-262.5503"/>
</g>
<!-- copper ore -->
<g id="node19" class="node">
<title>copper ore</title>
<ellipse fill="#fdcdac" fill-opacity="0.533333" stroke="#fdcdac" cx="122" cy="-378" rx="39.7935" ry="18"/>
<text text-anchor="middle" x="122" y="-374.3" font-family="Times,serif" font-size="14.00" fill="#000000">copper ore</text>
</g>
<!-- copper ore&#45;&gt;copper -->
<g id="edge34" class="edge">
<title>copper ore&#45;&gt;copper</title>
<path fill="none" stroke="#000000" d="M122,-359.8314C122,-352.131 122,-342.9743 122,-334.4166"/>
<polygon fill="#000000" stroke="#000000" points="125.5001,-334.4132 122,-324.4133 118.5001,-334.4133 125.5001,-334.4132"/>
</g>
<!-- quartz -->
<g id="node20" class="node">
<title>quartz</title>
<ellipse fill="#fdcdac" fill-opacity="0.533333" stroke="#fdcdac" cx="982" cy="-306" rx="27.8951" ry="18"/>
<text text-anchor="middle" x="982" y="-302.3" font-family="Times,serif" font-size="14.00" fill="#000000">quartz</text>
</g>
<!-- glassware -->
<g id="node25" class="node">
<title>glassware</title>
<ellipse fill="#cbd5e8" fill-opacity="0.533333" stroke="#cbd5e8" cx="742" cy="-234" rx="37.8943" ry="18"/>
<text text-anchor="middle" x="742" y="-230.3" font-family="Times,serif" font-size="14.00" fill="#000000">glassware</text>
</g>
<!-- quartz&#45;&gt;glassware -->
<g id="edge35" class="edge">
<title>quartz&#45;&gt;glassware</title>
<path fill="none" stroke="#000000" d="M955.7008,-299.5832C918.1585,-290.2195 847.1934,-271.7629 788,-252 785.58,-251.192 783.1013,-250.3288 780.6101,-249.434"/>
<polygon fill="#000000" stroke="#000000" points="781.631,-246.0796 771.0381,-245.8767 779.1925,-252.6411 781.631,-246.0796"/>
</g>
<!-- silicon -->
<g id="node32" class="node">
<title>silicon</title>
<ellipse fill="#f4cae4" fill-opacity="0.533333" stroke="#f4cae4" cx="987" cy="-90" rx="28.6953" ry="18"/>
<text text-anchor="middle" x="987" y="-86.3" font-family="Times,serif" font-size="14.00" fill="#000000">silicon</text>
</g>
<!-- quartz&#45;&gt;silicon -->
<g id="edge37" class="edge">
<title>quartz&#45;&gt;silicon</title>
<path fill="none" stroke="#000000" d="M997.2805,-290.4884C1006.0813,-280.4276 1016.3034,-266.5245 1021,-252 1036.0641,-205.413 1016.0175,-149.0818 1000.9223,-116.611"/>
<polygon fill="#000000" stroke="#000000" points="1003.9432,-114.8181 996.4408,-107.3371 997.6405,-117.8638 1003.9432,-114.8181"/>
</g>
<!-- pottery -->
<g id="node43" class="node">
<title>pottery</title>
<ellipse fill="#e6f5c9" fill-opacity="0.533333" stroke="#e6f5c9" cx="982" cy="-234" rx="29.795" ry="18"/>
<text text-anchor="middle" x="982" y="-230.3" font-family="Times,serif" font-size="14.00" fill="#000000">pottery</text>
</g>
<!-- quartz&#45;&gt;pottery -->
<g id="edge36" class="edge">
<title>quartz&#45;&gt;pottery</title>
<path fill="none" stroke="#000000" d="M982,-287.8314C982,-280.131 982,-270.9743 982,-262.4166"/>
<polygon fill="#000000" stroke="#000000" points="985.5001,-262.4132 982,-252.4133 978.5001,-262.4133 985.5001,-262.4132"/>
</g>
<!-- Era 4 -->
<g id="node30" class="node">
<title>Era 4</title>
<ellipse fill="#f4cae4" fill-opacity="0.533333" stroke="#f4cae4" cx="27" cy="-234" rx="27" ry="18"/>
<text text-anchor="middle" x="27" y="-230.3" font-family="Times,serif" font-size="14.00" fill="#000000">Era 4</text>
</g>
<!-- Era 3&#45;&gt;Era 4 -->
<g id="edge3" class="edge">
<title>Era 3&#45;&gt;Era 4</title>
<path fill="none" stroke="#000000" d="M27,-287.8314C27,-280.131 27,-270.9743 27,-262.4166"/>
<polygon fill="#000000" stroke="#000000" points="30.5001,-262.4132 27,-252.4133 23.5001,-262.4133 30.5001,-262.4132"/>
</g>
<!-- wires -->
<g id="node23" class="node">
<title>wires</title>
<ellipse fill="#cbd5e8" fill-opacity="0.533333" stroke="#cbd5e8" cx="110" cy="-234" rx="27" ry="18"/>
<text text-anchor="middle" x="110" y="-230.3" font-family="Times,serif" font-size="14.00" fill="#000000">wires</text>
</g>
<!-- copper&#45;&gt;wires -->
<g id="edge39" class="edge">
<title>copper&#45;&gt;wires</title>
<path fill="none" stroke="#000000" d="M118.9719,-287.8314C117.6687,-280.0125 116.1154,-270.6923 114.6703,-262.0221"/>
<polygon fill="#000000" stroke="#000000" points="118.082,-261.2019 112.9856,-251.9134 111.1773,-262.3528 118.082,-261.2019"/>
</g>
<!-- copper&#45;&gt;pipes -->
<g id="edge38" class="edge">
<title>copper&#45;&gt;pipes</title>
<path fill="none" stroke="#000000" d="M135.6149,-289.6621C143.4721,-280.2334 153.4924,-268.2091 162.2078,-257.7507"/>
<polygon fill="#000000" stroke="#000000" points="165.1382,-259.7013 168.8513,-249.7784 159.7606,-255.22 165.1382,-259.7013"/>
</g>
<!-- lamps -->
<g id="node35" class="node">
<title>lamps</title>
<ellipse fill="#f4cae4" fill-opacity="0.533333" stroke="#f4cae4" cx="519" cy="-162" rx="27.0966" ry="18"/>
<text text-anchor="middle" x="519" y="-158.3" font-family="Times,serif" font-size="14.00" fill="#000000">lamps</text>
</g>
<!-- wires&#45;&gt;lamps -->
<g id="edge40" class="edge">
<title>wires&#45;&gt;lamps</title>
<path fill="none" stroke="#000000" d="M130.4242,-222.2176C135.3843,-219.8023 140.7695,-217.5326 146,-216 290.5523,-173.6443 338.4477,-222.3557 483,-180 484.9111,-179.44 486.8429,-178.7816 488.7671,-178.0537"/>
<polygon fill="#000000" stroke="#000000" points="490.4102,-181.1562 498.1934,-173.9679 487.6263,-174.7336 490.4102,-181.1562"/>
</g>
<!-- machinery -->
<g id="node40" class="node">
<title>machinery</title>
<ellipse fill="#e6f5c9" fill-opacity="0.533333" stroke="#e6f5c9" cx="280" cy="-90" rx="39.7935" ry="18"/>
<text text-anchor="middle" x="280" y="-86.3" font-family="Times,serif" font-size="14.00" fill="#000000">machinery</text>
</g>
<!-- wires&#45;&gt;machinery -->
<g id="edge41" class="edge">
<title>wires&#45;&gt;machinery</title>
<path fill="none" stroke="#000000" d="M108.453,-215.8785C107.7668,-195.9284 109.8122,-164.0334 127,-144 141.288,-127.3466 194.852,-110.963 234.5948,-100.6888"/>
<polygon fill="#000000" stroke="#000000" points="235.5351,-104.0613 244.3689,-98.2119 233.8155,-97.2758 235.5351,-104.0613"/>
</g>
<!-- shoes&#45;&gt;clothing -->
<g id="edge42" class="edge">
<title>shoes&#45;&gt;clothing</title>
<path fill="none" stroke="#000000" d="M372.4382,-144.2022C374.8974,-136.1541 377.8598,-126.4588 380.5952,-117.5067"/>
<polygon fill="#000000" stroke="#000000" points="383.9731,-118.4289 383.5481,-107.8425 377.2786,-116.3833 383.9731,-118.4289"/>
</g>
<!-- glassware&#45;&gt;windows -->
<g id="edge45" class="edge">
<title>glassware&#45;&gt;windows</title>
<path fill="none" stroke="#000000" d="M756.6118,-217.3008C764.6427,-208.1226 774.753,-196.568 783.6525,-186.3971"/>
<polygon fill="#000000" stroke="#000000" points="786.5164,-188.4392 790.4674,-178.6087 781.2483,-183.8297 786.5164,-188.4392"/>
</g>
<!-- glassware&#45;&gt;lamps -->
<g id="edge43" class="edge">
<title>glassware&#45;&gt;lamps</title>
<path fill="none" stroke="#000000" d="M707.9438,-226.1546C669.9861,-216.9554 607.0924,-200.3478 555,-180 553.1938,-179.2945 551.3562,-178.5304 549.5152,-177.7288"/>
<polygon fill="#000000" stroke="#000000" points="550.9559,-174.5389 540.4116,-173.5047 548.0095,-180.8886 550.9559,-174.5389"/>
</g>
<!-- household supplies -->
<g id="node54" class="node">
<title>household supplies</title>
<ellipse fill="#fff2ae" fill-opacity="0.533333" stroke="#fff2ae" cx="742" cy="-90" rx="63.0888" ry="18"/>
<text text-anchor="middle" x="742" y="-86.3" font-family="Times,serif" font-size="14.00" fill="#000000">household supplies</text>
</g>
<!-- glassware&#45;&gt;household supplies -->
<g id="edge44" class="edge">
<title>glassware&#45;&gt;household supplies</title>
<path fill="none" stroke="#000000" d="M742,-215.7623C742,-191.201 742,-147.2474 742,-118.3541"/>
<polygon fill="#000000" stroke="#000000" points="745.5001,-118.0896 742,-108.0896 738.5001,-118.0897 745.5001,-118.0896"/>
</g>
<!-- sheet metal -->
<g id="node31" class="node">
<title>sheet metal</title>
<ellipse fill="#f4cae4" fill-opacity="0.533333" stroke="#f4cae4" cx="280" cy="-162" rx="41.6928" ry="18"/>
<text text-anchor="middle" x="280" y="-158.3" font-family="Times,serif" font-size="14.00" fill="#000000">sheet metal</text>
</g>
<!-- steel&#45;&gt;sheet metal -->
<g id="edge48" class="edge">
<title>steel&#45;&gt;sheet metal</title>
<path fill="none" stroke="#000000" d="M288.9719,-215.8314C287.6885,-208.131 286.1624,-198.9743 284.7361,-190.4166"/>
<polygon fill="#000000" stroke="#000000" points="288.1653,-189.7018 283.0689,-180.4133 281.2606,-190.8526 288.1653,-189.7018"/>
</g>
<!-- stainless steel -->
<g id="node38" class="node">
<title>stainless steel</title>
<ellipse fill="#f4cae4" fill-opacity="0.533333" stroke="#f4cae4" cx="906" cy="-162" rx="48.1917" ry="18"/>
<text text-anchor="middle" x="906" y="-158.3" font-family="Times,serif" font-size="14.00" fill="#000000">stainless steel</text>
</g>
<!-- steel&#45;&gt;stainless steel -->
<g id="edge47" class="edge">
<title>steel&#45;&gt;stainless steel</title>
<path fill="none" stroke="#000000" d="M312.7752,-222.4565C318.2289,-219.9058 324.2089,-217.5146 330,-216 553.6965,-157.4935 621.8345,-223.1153 849,-180 853.0718,-179.2272 857.2605,-178.2574 861.4304,-177.1709"/>
<polygon fill="#000000" stroke="#000000" points="862.3835,-180.5387 871.0623,-174.4618 860.4881,-173.8002 862.3835,-180.5387"/>
</g>
<!-- steel beams -->
<g id="node45" class="node">
<title>steel beams</title>
<ellipse fill="#e6f5c9" fill-opacity="0.533333" stroke="#e6f5c9" cx="178" cy="-162" rx="42.4939" ry="18"/>
<text text-anchor="middle" x="178" y="-158.3" font-family="Times,serif" font-size="14.00" fill="#000000">steel beams</text>
</g>
<!-- steel&#45;&gt;steel beams -->
<g id="edge46" class="edge">
<title>steel&#45;&gt;steel beams</title>
<path fill="none" stroke="#000000" d="M272.1427,-221.4586C255.1385,-210.7191 230.3232,-195.0462 210.4387,-182.4876"/>
<polygon fill="#000000" stroke="#000000" points="212.3002,-179.5237 201.9763,-177.1429 208.5622,-185.4421 212.3002,-179.5237"/>
</g>
<!-- pipes&#45;&gt;sheet metal -->
<g id="edge50" class="edge">
<title>pipes&#45;&gt;sheet metal</title>
<path fill="none" stroke="#000000" d="M200.4331,-220.4574C214.5033,-210.12 234.1721,-195.6695 250.4334,-183.7224"/>
<polygon fill="#000000" stroke="#000000" points="252.5921,-186.4795 258.5787,-177.7381 248.4475,-180.8383 252.5921,-186.4795"/>
</g>
<!-- pipes&#45;&gt;steel beams -->
<g id="edge49" class="edge">
<title>pipes&#45;&gt;steel beams</title>
<path fill="none" stroke="#000000" d="M180.9906,-215.8314C180.5628,-208.131 180.0541,-198.9743 179.5787,-190.4166"/>
<polygon fill="#000000" stroke="#000000" points="183.0724,-190.2037 179.023,-180.4133 176.0831,-190.592 183.0724,-190.2037"/>
</g>
<!-- windows&#45;&gt;cars -->
<g id="edge51" class="edge">
<title>windows&#45;&gt;cars</title>
<path fill="none" stroke="#000000" d="M773.1464,-154.4308C716.2422,-140.909 597.5084,-112.6951 537.8449,-98.5176"/>
<polygon fill="#000000" stroke="#000000" points="538.3014,-95.0287 527.7631,-96.1219 536.683,-101.8391 538.3014,-95.0287"/>
</g>
<!-- Era 5 -->
<g id="node39" class="node">
<title>Era 5</title>
<ellipse fill="#e6f5c9" fill-opacity="0.533333" stroke="#e6f5c9" cx="27" cy="-162" rx="27" ry="18"/>
<text text-anchor="middle" x="27" y="-158.3" font-family="Times,serif" font-size="14.00" fill="#000000">Era 5</text>
</g>
<!-- Era 4&#45;&gt;Era 5 -->
<g id="edge4" class="edge">
<title>Era 4&#45;&gt;Era 5</title>
<path fill="none" stroke="#000000" d="M27,-215.8314C27,-208.131 27,-198.9743 27,-190.4166"/>
<polygon fill="#000000" stroke="#000000" points="30.5001,-190.4132 27,-180.4133 23.5001,-190.4133 30.5001,-190.4132"/>
</g>
<!-- sheet metal&#45;&gt;machinery -->
<g id="edge52" class="edge">
<title>sheet metal&#45;&gt;machinery</title>
<path fill="none" stroke="#000000" d="M280,-143.8314C280,-136.131 280,-126.9743 280,-118.4166"/>
<polygon fill="#000000" stroke="#000000" points="283.5001,-118.4132 280,-108.4133 276.5001,-118.4133 283.5001,-118.4132"/>
</g>
<!-- sheet metal&#45;&gt;cars -->
<g id="edge53" class="edge">
<title>sheet metal&#45;&gt;cars</title>
<path fill="none" stroke="#000000" d="M312.0463,-150.5058C318.3182,-148.3082 324.8555,-146.0539 331,-144 378.1638,-128.235 433.0451,-111.12 467.6513,-100.4774"/>
<polygon fill="#000000" stroke="#000000" points="468.7469,-103.8023 477.2799,-97.5224 466.6931,-97.1104 468.7469,-103.8023"/>
</g>
<!-- electronics -->
<g id="node49" class="node">
<title>electronics</title>
<ellipse fill="#fff2ae" fill-opacity="0.533333" stroke="#fff2ae" cx="987" cy="-18" rx="40.0939" ry="18"/>
<text text-anchor="middle" x="987" y="-14.3" font-family="Times,serif" font-size="14.00" fill="#000000">electronics</text>
</g>
<!-- silicon&#45;&gt;electronics -->
<g id="edge54" class="edge">
<title>silicon&#45;&gt;electronics</title>
<path fill="none" stroke="#000000" d="M987,-71.8314C987,-64.131 987,-54.9743 987,-46.4166"/>
<polygon fill="#000000" stroke="#000000" points="990.5001,-46.4132 987,-36.4133 983.5001,-46.4133 990.5001,-46.4132"/>
</g>
<!-- food&#45;&gt;household supplies -->
<g id="edge55" class="edge">
<title>food&#45;&gt;household supplies</title>
<path fill="none" stroke="#000000" d="M612.6593,-151.0623C617.3758,-148.7108 622.3469,-146.2553 627,-144 650.8598,-132.4354 677.6692,-119.8247 699.397,-109.7003"/>
<polygon fill="#000000" stroke="#000000" points="701.0924,-112.7718 708.6831,-105.3804 698.1398,-106.4249 701.0924,-112.7718"/>
</g>
<!-- crude oil -->
<g id="node34" class="node">
<title>crude oil</title>
<ellipse fill="#f4cae4" fill-opacity="0.533333" stroke="#f4cae4" cx="1198" cy="-306" rx="35.194" ry="18"/>
<text text-anchor="middle" x="1198" y="-302.3" font-family="Times,serif" font-size="14.00" fill="#000000">crude oil</text>
</g>
<!-- chemicals -->
<g id="node36" class="node">
<title>chemicals</title>
<ellipse fill="#f4cae4" fill-opacity="0.533333" stroke="#f4cae4" cx="1165" cy="-234" rx="37.8943" ry="18"/>
<text text-anchor="middle" x="1165" y="-230.3" font-family="Times,serif" font-size="14.00" fill="#000000">chemicals</text>
</g>
<!-- crude oil&#45;&gt;chemicals -->
<g id="edge57" class="edge">
<title>crude oil&#45;&gt;chemicals</title>
<path fill="none" stroke="#000000" d="M1189.8427,-288.2022C1186.0463,-279.9192 1181.4503,-269.8915 1177.2489,-260.7248"/>
<polygon fill="#000000" stroke="#000000" points="1180.4118,-259.2254 1173.0635,-251.593 1174.0483,-262.142 1180.4118,-259.2254"/>
</g>
<!-- petrol -->
<g id="node46" class="node">
<title>petrol</title>
<ellipse fill="#e6f5c9" fill-opacity="0.533333" stroke="#e6f5c9" cx="1231" cy="-162" rx="27" ry="18"/>
<text text-anchor="middle" x="1231" y="-158.3" font-family="Times,serif" font-size="14.00" fill="#000000">petrol</text>
</g>
<!-- crude oil&#45;&gt;petrol -->
<g id="edge56" class="edge">
<title>crude oil&#45;&gt;petrol</title>
<path fill="none" stroke="#000000" d="M1202.8725,-288.0509C1205.6634,-277.5678 1209.1634,-264.0678 1212,-252 1216.8645,-231.3048 1221.8078,-207.7956 1225.4323,-189.9954"/>
<polygon fill="#000000" stroke="#000000" points="1228.9054,-190.4783 1227.4548,-179.9832 1222.044,-189.0922 1228.9054,-190.4783"/>
</g>
<!-- lamps&#45;&gt;cars -->
<g id="edge58" class="edge">
<title>lamps&#45;&gt;cars</title>
<path fill="none" stroke="#000000" d="M514.7978,-144.2022C512.9179,-136.2406 510.6575,-126.6671 508.5629,-117.7957"/>
<polygon fill="#000000" stroke="#000000" points="511.9172,-116.7706 506.2128,-107.8425 505.1045,-118.3792 511.9172,-116.7706"/>
</g>
<!-- chemicals&#45;&gt;stainless steel -->
<g id="edge62" class="edge">
<title>chemicals&#45;&gt;stainless steel</title>
<path fill="none" stroke="#000000" d="M1132.1975,-224.8812C1087.3123,-212.4034 1006.4191,-189.9157 954.5168,-175.4873"/>
<polygon fill="#000000" stroke="#000000" points="955.4324,-172.1092 944.8603,-172.8029 953.5575,-178.8534 955.4324,-172.1092"/>
</g>
<!-- plastics -->
<g id="node41" class="node">
<title>plastics</title>
<ellipse fill="#e6f5c9" fill-opacity="0.533333" stroke="#e6f5c9" cx="1117" cy="-162" rx="31.3957" ry="18"/>
<text text-anchor="middle" x="1117" y="-158.3" font-family="Times,serif" font-size="14.00" fill="#000000">plastics</text>
</g>
<!-- chemicals&#45;&gt;plastics -->
<g id="edge61" class="edge">
<title>chemicals&#45;&gt;plastics</title>
<path fill="none" stroke="#000000" d="M1153.3805,-216.5708C1147.6025,-207.9038 1140.5061,-197.2592 1134.1197,-187.6796"/>
<polygon fill="#000000" stroke="#000000" points="1136.9717,-185.6477 1128.5125,-179.2687 1131.1473,-189.5307 1136.9717,-185.6477"/>
</g>
<!-- chemicals&#45;&gt;petrol -->
<g id="edge59" class="edge">
<title>chemicals&#45;&gt;petrol</title>
<path fill="none" stroke="#000000" d="M1180.3076,-217.3008C1189.047,-207.7669 1200.1369,-195.6689 1209.7141,-185.221"/>
<polygon fill="#000000" stroke="#000000" points="1212.5018,-187.3595 1216.679,-177.6229 1207.3417,-182.6294 1212.5018,-187.3595"/>
</g>
<!-- pharmaceuticals -->
<g id="node51" class="node">
<title>pharmaceuticals</title>
<ellipse fill="#fff2ae" fill-opacity="0.533333" stroke="#fff2ae" cx="1199" cy="-90" rx="55.4913" ry="18"/>
<text text-anchor="middle" x="1199" y="-86.3" font-family="Times,serif" font-size="14.00" fill="#000000">pharmaceuticals</text>
</g>
<!-- chemicals&#45;&gt;pharmaceuticals -->
<g id="edge60" class="edge">
<title>chemicals&#45;&gt;pharmaceuticals</title>
<path fill="none" stroke="#000000" d="M1169.2374,-216.0535C1175.0401,-191.4774 1185.5179,-147.1008 1192.3659,-118.0974"/>
<polygon fill="#000000" stroke="#000000" points="1195.8176,-118.7094 1194.7092,-108.1727 1189.0049,-117.1008 1195.8176,-118.7094"/>
</g>
<!-- toiletries -->
<g id="node53" class="node">
<title>toiletries</title>
<ellipse fill="#fff2ae" fill-opacity="0.533333" stroke="#fff2ae" cx="906" cy="-90" rx="34.394" ry="18"/>
<text text-anchor="middle" x="906" y="-86.3" font-family="Times,serif" font-size="14.00" fill="#000000">toiletries</text>
</g>
<!-- stainless steel&#45;&gt;toiletries -->
<g id="edge64" class="edge">
<title>stainless steel&#45;&gt;toiletries</title>
<path fill="none" stroke="#000000" d="M906,-143.8314C906,-136.131 906,-126.9743 906,-118.4166"/>
<polygon fill="#000000" stroke="#000000" points="909.5001,-118.4132 906,-108.4133 902.5001,-118.4133 909.5001,-118.4132"/>
</g>
<!-- stainless steel&#45;&gt;household supplies -->
<g id="edge63" class="edge">
<title>stainless steel&#45;&gt;household supplies</title>
<path fill="none" stroke="#000000" d="M874.7668,-148.2879C849.5508,-137.2174 813.7751,-121.511 785.7133,-109.1912"/>
<polygon fill="#000000" stroke="#000000" points="787.0822,-105.9698 776.5188,-105.1546 784.2683,-112.3793 787.0822,-105.9698"/>
</g>
<!-- Era 6 -->
<g id="node48" class="node">
<title>Era 6</title>
<ellipse fill="#fff2ae" fill-opacity="0.533333" stroke="#fff2ae" cx="27" cy="-90" rx="27" ry="18"/>
<text text-anchor="middle" x="27" y="-86.3" font-family="Times,serif" font-size="14.00" fill="#000000">Era 6</text>
</g>
<!-- Era 5&#45;&gt;Era 6 -->
<g id="edge5" class="edge">
<title>Era 5&#45;&gt;Era 6</title>
<path fill="none" stroke="#000000" d="M27,-143.8314C27,-136.131 27,-126.9743 27,-118.4166"/>
<polygon fill="#000000" stroke="#000000" points="30.5001,-118.4132 27,-108.4133 23.5001,-118.4133 30.5001,-118.4132"/>
</g>
<!-- machinery&#45;&gt;electronics -->
<g id="edge65" class="edge">
<title>machinery&#45;&gt;electronics</title>
<path fill="none" stroke="#000000" d="M313.1361,-79.844C323.8522,-76.8979 335.8479,-73.9524 347,-72 564.3281,-33.9515 828.0404,-22.46 936.602,-19.203"/>
<polygon fill="#000000" stroke="#000000" points="936.7224,-22.7011 946.6168,-18.9129 936.5196,-15.704 936.7224,-22.7011"/>
</g>
<!-- plastics&#45;&gt;electronics -->
<g id="edge68" class="edge">
<title>plastics&#45;&gt;electronics</title>
<path fill="none" stroke="#000000" d="M1117.4051,-143.8368C1116.9173,-124.1449 1113.329,-92.7572 1097,-72 1080.7718,-51.371 1054.6368,-38.0835 1031.9131,-29.8527"/>
<polygon fill="#000000" stroke="#000000" points="1033.0164,-26.5311 1022.422,-26.6281 1030.7645,-33.159 1033.0164,-26.5311"/>
</g>
<!-- plastics&#45;&gt;toys -->
<g id="edge66" class="edge">
<title>plastics&#45;&gt;toys</title>
<path fill="none" stroke="#000000" d="M1104.0117,-145.3008C1096.8428,-136.0836 1087.81,-124.4699 1079.8749,-114.2677"/>
<polygon fill="#000000" stroke="#000000" points="1082.4348,-111.8581 1073.5326,-106.1134 1076.9093,-116.1557 1082.4348,-111.8581"/>
</g>
<!-- plastics&#45;&gt;pharmaceuticals -->
<g id="edge67" class="edge">
<title>plastics&#45;&gt;pharmaceuticals</title>
<path fill="none" stroke="#000000" d="M1134.3901,-146.7307C1145.2654,-137.1816 1159.5026,-124.6806 1171.8438,-113.8444"/>
<polygon fill="#000000" stroke="#000000" points="1174.4205,-116.2398 1179.6256,-107.0117 1169.8018,-110.9797 1174.4205,-116.2398"/>
</g>
<!-- aluminium -->
<g id="node42" class="node">
<title>aluminium</title>
<ellipse fill="#e6f5c9" fill-opacity="0.533333" stroke="#e6f5c9" cx="1313" cy="-90" rx="40.0939" ry="18"/>
<text text-anchor="middle" x="1313" y="-86.3" font-family="Times,serif" font-size="14.00" fill="#000000">aluminium</text>
</g>
<!-- sports goods -->
<g id="node52" class="node">
<title>sports goods</title>
<ellipse fill="#fff2ae" fill-opacity="0.533333" stroke="#fff2ae" cx="1313" cy="-18" rx="44.6926" ry="18"/>
<text text-anchor="middle" x="1313" y="-14.3" font-family="Times,serif" font-size="14.00" fill="#000000">sports goods</text>
</g>
<!-- aluminium&#45;&gt;sports goods -->
<g id="edge70" class="edge">
<title>aluminium&#45;&gt;sports goods</title>
<path fill="none" stroke="#000000" d="M1313,-71.8314C1313,-64.131 1313,-54.9743 1313,-46.4166"/>
<polygon fill="#000000" stroke="#000000" points="1316.5001,-46.4132 1313,-36.4133 1309.5001,-46.4133 1316.5001,-46.4132"/>
</g>
<!-- pottery&#45;&gt;toiletries -->
<g id="edge71" class="edge">
<title>pottery&#45;&gt;toiletries</title>
<path fill="none" stroke="#000000" d="M981.3326,-215.9902C979.9394,-196.9906 975.7127,-166.7146 963,-144 955.9442,-131.3929 944.961,-119.9691 934.5116,-110.9096"/>
<polygon fill="#000000" stroke="#000000" points="936.6394,-108.1276 926.6988,-104.4622 932.1839,-113.5266 936.6394,-108.1276"/>
</g>
<!-- bauxite -->
<g id="node44" class="node">
<title>bauxite</title>
<ellipse fill="#e6f5c9" fill-opacity="0.533333" stroke="#e6f5c9" cx="1313" cy="-162" rx="30.5947" ry="18"/>
<text text-anchor="middle" x="1313" y="-158.3" font-family="Times,serif" font-size="14.00" fill="#000000">bauxite</text>
</g>
<!-- bauxite&#45;&gt;aluminium -->
<g id="edge69" class="edge">
<title>bauxite&#45;&gt;aluminium</title>
<path fill="none" stroke="#000000" d="M1313,-143.8314C1313,-136.131 1313,-126.9743 1313,-118.4166"/>
<polygon fill="#000000" stroke="#000000" points="1316.5001,-118.4132 1313,-108.4133 1309.5001,-118.4133 1316.5001,-118.4132"/>
</g>
</g>
</svg>
